<svg style="display: none"><defs><style>.cls-1{fill:#95e1d3;fill-rule:evenodd}</style><style>.cls-1{fill:#95e1d3;fill-rule:evenodd}</style><style>.cls-1{fill:#95e1d3;fill-rule:evenodd}</style><style>.cls-1{fill:#95e1d3;fill-rule:evenodd}</style><style>.cls-1{fill:#fff;fill-rule:evenodd}</style><style>.cls-1{fill:#95e1d3;fill-rule:evenodd}</style><style>.cls-1{fill:#95e1d3;fill-rule:evenodd}</style><style>.cls-1{fill:#95e1d3;fill-rule:evenodd}</style><style>.cls-1{fill:#fff;fill-rule:evenodd}</style><style>.cls-1{fill:#95e1d3;fill-rule:evenodd}</style><style>.cls-1{fill:#95e1d3;fill-rule:evenodd}</style><style>.cls-1{fill:#95e1d3;fill-rule:evenodd}</style><style>.cls-1{fill:#95e1d3;fill-rule:evenodd}</style><style>.cls-1{fill:#f38181;fill-rule:evenodd}</style><style>.cls-1{fill:#95e1d3;fill-rule:evenodd}</style><style>.cls-1{fill:#f38181;fill-rule:evenodd}</style><style>.cls-1{fill:#f38181;fill-rule:evenodd}</style><style>.cls-1{fill:#fff;fill-rule:evenodd}</style><style>.cls-1{fill:#95e1d3;fill-rule:evenodd}</style><style>.cls-1{fill:#95e1d3;fill-rule:evenodd}</style><style>.cls-1{fill:#f38181;fill-rule:evenodd}</style><style>.cls-1{fill:#95e1d3;fill-rule:evenodd}</style><style>.cls-1{fill:#95e1d3;fill-rule:evenodd}</style></defs><symbol viewBox="0 0 32 30.5" id="alarm"><title>alarm</title><path id="alarm-ALARM" class="cls-1" d="M420.74 2319.5a15.727 15.727 0 0 0-8.243-8.24 5.868 5.868 0 0 1 8.243 8.24zm-.24 6.5a14.442 14.442 0 0 1-3.963 9.94l2.029 2.03a1.482 1.482 0 0 1-1.049 2.53 1.51 1.51 0 0 1-1.049-.43l-2.178-2.18a14.471 14.471 0 0 1-16.566.01l-2.163 2.16a1.5 1.5 0 1 1-2.122-2.12l2.012-2.01A14.495 14.495 0 1 1 420.5 2326zm-14.5-11.5a11.5 11.5 0 1 0 11.5 11.5 11.5 11.5 0 0 0-11.5-11.5zm6 13h-6a1.5 1.5 0 0 1-1.5-1.5v-8a1.5 1.5 0 0 1 3 0v6.5h4.5a1.5 1.5 0 0 1 0 3zm-20.713-7.79a5.994 5.994 0 0 1 8.419-8.42 16.016 16.016 0 0 0-8.419 8.42z" transform="translate(-390 -2310)"/></symbol><symbol viewBox="0 0 16 16" id="ball"><title>ball</title><path id="ball-dribbble" class="cls-1" d="M638.837 9782.4a7.9 7.9 0 0 0-.466-1.5 8.22 8.22 0 0 0-.738-1.36 8.093 8.093 0 0 0-.976-1.18 8.443 8.443 0 0 0-1.184-.98 7.971 7.971 0 0 0-8.947 0 8.434 8.434 0 0 0-1.183.98 8.093 8.093 0 0 0-.976 1.18 8.22 8.22 0 0 0-.738 1.36 7.9 7.9 0 0 0-.467 1.5 8.131 8.131 0 0 0 0 3.23 7.9 7.9 0 0 0 .467 1.5 8.22 8.22 0 0 0 .738 1.36 8.093 8.093 0 0 0 .976 1.18 8.434 8.434 0 0 0 1.183.98 7.971 7.971 0 0 0 8.947 0 8.443 8.443 0 0 0 1.184-.98 8.093 8.093 0 0 0 .976-1.18 8.22 8.22 0 0 0 .738-1.36 7.9 7.9 0 0 0 .466-1.5 8.082 8.082 0 0 0 0-3.23zm-1.007 1.55a15.962 15.962 0 0 0-4.759-.23 20.156 20.156 0 0 0-.601-1.34 8.874 8.874 0 0 0 3.807-2.7 6.794 6.794 0 0 1 1.553 4.27zm-2.317-5.06a7.451 7.451 0 0 1-3.569 2.47 34.349 34.349 0 0 0-2.554-3.98 6.581 6.581 0 0 1 1.61-.2 6.812 6.812 0 0 1 4.513 1.71zm-6.149-1.51a.039.039 0 0 0-.02.01.022.022 0 0 1 .02-.01zm-1.279.46a40.568 40.568 0 0 1 2.537 3.93 25.7 25.7 0 0 1-6.308.84 6.831 6.831 0 0 1 3.771-4.77zm-3.917 6.17v-.21a25.209 25.209 0 0 0 7.015-.97c.2.38.383.77.554 1.16a2.662 2.662 0 0 0-.269.08 10.8 10.8 0 0 0-5.557 4.51 6.807 6.807 0 0 1-1.743-4.57zm6.832 6.84a6.8 6.8 0 0 1-4.352-1.57l.153.12a9.25 9.25 0 0 1 5.362-4.27c.015 0 .03-.01.045-.01a28.411 28.411 0 0 1 1.459 5.19 6.951 6.951 0 0 1-2.667.54zm3.818-1.17a29.625 29.625 0 0 0-1.33-4.88 9.871 9.871 0 0 1 4.258.3 6.827 6.827 0 0 1-2.928 4.58z" transform="translate(-623 -9776)"/></symbol><symbol viewBox="0 0 32 32" id="book"><title>book</title><path id="book-BOOK_2" data-name="BOOK 2" class="cls-1" d="M422.065 2504.89l-14.471 5.99a1.53 1.53 0 0 1-1.188 0l-14.471-5.99a1.5 1.5 0 0 1-.935-1.39v-23a1.5 1.5 0 0 1 1.5-1.5 1.55 1.55 0 0 1 .573.11v.01h.013l13.914 5.76 13.911-5.76h.013v-.01a1.55 1.55 0 0 1 .573-.11 1.5 1.5 0 0 1 1.5 1.5v23a1.5 1.5 0 0 1-.932 1.39zM405.5 2487.5l-11.5-4.76v19.76l11.5 4.76v-19.76zm14.5-4.76l-11.5 4.76v19.76l11.5-4.76v-19.76zm-9.121 6.89l5.5-2.5a1.593 1.593 0 0 1 .621-.13 1.5 1.5 0 0 1 .621 2.87l-5.5 2.5a1.6 1.6 0 0 1-.621.13 1.5 1.5 0 0 1-.621-2.87zm0 5.5l5.5-2.5a1.593 1.593 0 0 1 .621-.13 1.5 1.5 0 0 1 .621 2.87l-5.5 2.5v-.01a1.445 1.445 0 0 1-.621.14 1.5 1.5 0 0 1-.621-2.87zm0 5.5l5.5-2.5a1.593 1.593 0 0 1 .621-.13 1.5 1.5 0 0 1 .621 2.87l-5.5 2.5a1.6 1.6 0 0 1-.621.13 1.5 1.5 0 0 1-.621-2.87zM397 2487a1.6 1.6 0 0 1 .621.13l5.5 2.5a1.5 1.5 0 0 1-.621 2.87 1.593 1.593 0 0 1-.621-.13l-5.5-2.5A1.5 1.5 0 0 1 397 2487zm0 5.5a1.6 1.6 0 0 1 .621.13l5.5 2.5a1.5 1.5 0 0 1-.621 2.87 1.439 1.439 0 0 1-.621-.14v.01l-5.5-2.5a1.5 1.5 0 0 1 .621-2.87zm0 5.5a1.6 1.6 0 0 1 .621.13l5.5 2.5a1.5 1.5 0 0 1-.621 2.87 1.593 1.593 0 0 1-.621-.13l-5.5-2.5A1.5 1.5 0 0 1 397 2498z" transform="translate(-391 -2479)"/></symbol><symbol viewBox="0 0 32 32" id="bullseye"><title>bullseye</title><path id="bullseye-BULLSEYE" class="cls-1" d="M991 4286a16 16 0 1 1 16-16 16 16 0 0 1-16 16zm0-29a13 13 0 1 0 13 13 13 13 0 0 0-13-13zm0 22.5a9.5 9.5 0 1 1 9.5-9.5 9.5 9.5 0 0 1-9.5 9.5zm0-16a6.5 6.5 0 1 0 6.5 6.5 6.5 6.5 0 0 0-6.5-6.5zm0 9.5a3 3 0 1 1 3-3 3 3 0 0 1-3 3z" transform="translate(-975 -4254)"/></symbol><symbol viewBox="0 0 17.62 14.031" id="cart"><title>cart</title><path id="cart-SHOPPING_CART" data-name="SHOPPING CART" class="cls-1" d="M1501.73 40.663l-2.48 5.5a.815.815 0 0 1-.7.485l-7.12.475.41 1.177h7.76a1.65 1.65 0 1 1-1.65 1.651h-7.7a1.65 1.65 0 1 1-1.65-1.651h1.49l-3.18-9.075h-1.89a.825.825 0 0 1 0-1.65h2.48a.835.835 0 0 1 .78.554l.48 1.373h12.21a.826.826 0 0 1 .83.825.941.941 0 0 1-.07.336zm-12.39.487l1.52 4.357 7.09-.473 1.75-3.884h-10.36z" transform="translate(-1484.19 -37.563)"/></symbol><symbol viewBox="0 0 16.031 14.25" id="comment"><title>comment</title><path id="comment-SPEECH_BUBBLE_2" data-name="SPEECH BUBBLE 2" class="cls-1" d="M847.416 9121.36a11.451 11.451 0 0 1-1.676-.25 6.352 6.352 0 0 1-5.647 2.23c2.441-1.15 2.391-3.07 1.957-3.32a5.615 5.615 0 0 1-3.068-4.76c0-3.4 3.727-6.14 8.434-6.14s7.577 2.74 7.577 6.14-2.869 6.1-7.577 6.1zm-4.174-7.48a1.5 1.5 0 1 0 1.5 1.49 1.5 1.5 0 0 0-1.5-1.49zm3.75 0a1.5 1.5 0 1 0 1.5 1.49 1.5 1.5 0 0 0-1.5-1.49zm3.75 0a1.5 1.5 0 1 0 1.5 1.49 1.5 1.5 0 0 0-1.5-1.49z" transform="translate(-838.969 -9109.13)"/></symbol><symbol viewBox="0 0 31 28" id="computer"><title>computer</title><path id="computer-COMPUTER_OK" data-name="COMPUTER / OK" class="cls-1" d="M1220 2333h-9.5v2.5l2 2v.5h-13v-.5l2-2v-2.5h-9.5a1.5 1.5 0 0 1-1.5-1.5v-20a1.5 1.5 0 0 1 1.5-1.5h28a1.5 1.5 0 0 1 1.5 1.5v20a1.5 1.5 0 0 1-1.5 1.5zm-.5-21h-27v17h27v-17zm-16.5 7a1.505 1.505 0 0 1 1.06.44l.94.94 2.94-2.94a1.5 1.5 0 1 1 2.12 2.12l-4 4a1.5 1.5 0 0 1-2.12 0l-2-2a1.5 1.5 0 0 1 1.06-2.56z" transform="translate(-1190.5 -2310)"/></symbol><symbol viewBox="0 0 28 32" id="equalizer"><title>equalizer</title><path id="equalizer-EQUALIZER" class="cls-1" d="M1002.5 4200.5h-3a1.5 1.5 0 0 1-1.5-1.5v-6a1.5 1.5 0 0 1 1.5-1.5h3a1.5 1.5 0 0 1 1.5 1.5v6a1.5 1.5 0 0 1-1.5 1.5zm-3-15a1.5 1.5 0 0 1 3 0v4.5h-3v-4.5zm-8 23h-3a1.5 1.5 0 0 1-1.5-1.5v-6a1.5 1.5 0 0 1 1.5-1.5h3a1.5 1.5 0 0 1 1.5 1.5v6a1.5 1.5 0 0 1-1.5 1.5zm-3-23a1.5 1.5 0 0 1 3 0v12.5h-3v-12.5zm-8 19h-3a1.5 1.5 0 0 1-1.5-1.5v-6a1.5 1.5 0 0 1 1.5-1.5h3a1.5 1.5 0 0 1 1.5 1.5v6a1.5 1.5 0 0 1-1.5 1.5zm-3-19a1.5 1.5 0 0 1 3 0v8.5h-3v-8.5zm3 29a1.5 1.5 0 0 1-3 0v-8.5h3v8.5zm11 0a1.5 1.5 0 0 1-3 0v-4.5h3v4.5zm11 0a1.5 1.5 0 0 1-3 0V4202h3v12.5z" transform="translate(-976 -4184)"/></symbol><symbol viewBox="0 0 12.031 25.62" id="facebook"><title>facebook</title><path id="facebook-facebook" class="cls-1" d="M463.089 5312.2v4.12s-3.037-.3-3.8.86c-.416.64-.169 2.5-.206 3.84h4.029c-.34 1.56-.584 2.62-.835 3.98h-3.216v12.8h-5.582v-12.75h-2.375v-4.03h2.349c.12-2.95.165-5.87 1.629-7.35 1.646-1.67 3.218-1.47 8.007-1.47z" transform="translate(-451.094 -5312.19)"/></symbol><symbol viewBox="0 0 16 13.78" id="google"><title>google</title><path id="google-google_plus" data-name="google plus" class="cls-1" d="M576.5 9780.72v2.44h-1v-2.44H573v-1h2.5v-2.44h1v2.44h2.5v1h-2.5zm-6.915-2.47a2.55 2.55 0 0 1 1.408 2.33 2.721 2.721 0 0 1-1.239 2.1 1.356 1.356 0 0 0-.81 1.18 2.684 2.684 0 0 0 1.111 1.29 2.866 2.866 0 0 1 1.444 2.7c0 1.49-1.444 3.17-4.116 3.17-2.344 0-4.383-1.12-4.383-2.62 0-1.52 1.866-2.99 4.209-2.99.256 0 .49-.01.732-.01a1.621 1.621 0 0 1-.574-1.15 1.774 1.774 0 0 1 .213-.79c-.127.01-.257-.01-.391-.01a3.059 3.059 0 0 1-3.214-3.05c0-1.64 1.781-3.14 3.673-3.14h4.22l-.945.99h-1.338zm-1.929 7.55c-1.62-.02-3.071.97-3.071 2.15 0 1.21 1.17 2.1 2.789 2.1 2.277 0 3.071-.82 3.071-2.03a1.8 1.8 0 0 0-.052-.43c-.178-.69-.808-1.02-1.688-1.62a3.209 3.209 0 0 0-1.049-.17zm1.82-5.2a2.813 2.813 0 0 0-2.356-2.56c-1.087-.03-1.816 1.04-1.628 2.44a2.827 2.827 0 0 0 2.308 2.6c1.087.03 1.863-1.08 1.676-2.48z" transform="translate(-563 -9777.25)"/></symbol><symbol viewBox="0 0 32 32" id="graph"><title>graph</title><path id="graph-LINE_GRAPH" data-name="LINE GRAPH" class="cls-1" d="M821.5 2341h-29a1.5 1.5 0 0 1-1.5-1.5v-29a1.5 1.5 0 0 1 1.5-1.5h29a1.5 1.5 0 0 1 1.5 1.5v29a1.5 1.5 0 0 1-1.5 1.5zm-1.5-29h-26v26h26v-26zm-23.785 13.24l4-2.5a1.524 1.524 0 0 1 1.625.03h.006l6.631 4.42 7.638-5.4a1.5 1.5 0 1 1 1.763 2.43l-8.5 6a1.486 1.486 0 0 1-.878.29 1.505 1.505 0 0 1-.861-.28l-6.657-4.43-3.135 1.96a1.533 1.533 0 0 1-.847.26 1.5 1.5 0 0 1-.785-2.78z" transform="translate(-791 -2309)"/></symbol><symbol viewBox="0 0 32 30.5" id="home"><title>home</title><path id="home-HOME" class="cls-1" d="M822 2495.5a1.493 1.493 0 0 1-2.52 1.09v.01l-13.439-13.44-.038-.04-13.446 13.45a1.525 1.525 0 0 1-1.053.43 1.5 1.5 0 0 1-1.5-1.5 1.479 1.479 0 0 1 .461-1.08l14.458-14.46a1.51 1.51 0 0 1 1.081-.46h.092c.023 0 .045.01.068.01a1.479 1.479 0 0 1 .933.47l5.9 5.9v-1.38a1.5 1.5 0 0 1 3 0v4.38l5.6 5.6a1.485 1.485 0 0 1 .403 1.02zm-3 2.5v10.5a1.5 1.5 0 0 1-1.5 1.5h-3v-12h-6v12h-14a1.5 1.5 0 0 1-1.5-1.5V2498l13-13zm-15.5 0h-6v6h6v-6z" transform="translate(-790 -2479.5)"/></symbol><symbol viewBox="0 0 32 32" id="image"><title>image</title><path id="image-IMAGE" class="cls-1" d="M1220.5 2511h-29a1.5 1.5 0 0 1-1.5-1.5v-29a1.5 1.5 0 0 1 1.5-1.5h29a1.5 1.5 0 0 1 1.5 1.5v29a1.5 1.5 0 0 1-1.5 1.5zm-1.5-29h-26v26h26v-26zm-22.5 1.5h5.5a1.5 1.5 0 0 1 0 3h-4.5v4.5a1.5 1.5 0 0 1-3 0v-7.5h2zm-2 15.5a1.5 1.5 0 0 1 3 0v4.5h4.5a1.5 1.5 0 0 1 0 3h-7.5v-7.5zm15.5-15.5h7.5v7.5a1.5 1.5 0 0 1-3 0v-4.5h-4.5a1.5 1.5 0 0 1 0-3zm0 20h4.5v-4.5a1.5 1.5 0 0 1 3 0v7.5h-7.5a1.5 1.5 0 0 1 0-3z" transform="translate(-1190 -2479)"/></symbol><symbol viewBox="0 0 25.593 25.62" id="instagram"><title>instagram</title><path id="instagram-instagram" class="cls-1" d="M632.7 5337.8h-19.2a3.2 3.2 0 0 1-3.2-3.2v-19.2a3.2 3.2 0 0 1 3.2-3.2h19.2a3.2 3.2 0 0 1 3.2 3.2v19.2a3.2 3.2 0 0 1-3.2 3.2zm-9.6-17.76a4.954 4.954 0 0 0-4.5 2.88.244.244 0 0 1-.022.05 6.4 6.4 0 0 0-.128.33c-.019.05-.04.1-.057.15-.037.11-.067.23-.1.34-.014.05-.03.11-.042.16-.026.12-.044.25-.061.37-.007.05-.017.1-.023.15a5.074 5.074 0 0 0-.029.53 4.96 4.96 0 1 0 9.92 0 5.074 5.074 0 0 0-.029-.53c-.006-.05-.016-.1-.023-.15-.017-.12-.035-.25-.061-.37a4.716 4.716 0 0 0-.042-.16c-.028-.11-.058-.23-.1-.34-.017-.05-.038-.1-.057-.15a6.4 6.4 0 0 0-.128-.33.244.244 0 0 1-.022-.05 4.954 4.954 0 0 0-4.496-2.88zm9.92-3.68a1.278 1.278 0 0 0-1.28-1.28h-2.56a1.278 1.278 0 0 0-1.28 1.28v2.56a1.278 1.278 0 0 0 1.28 1.28h2.56a1.278 1.278 0 0 0 1.28-1.28v-2.56zm0 6.56h-2.36a7.84 7.84 0 1 1-15.12 0h-2.36v10.72a1.278 1.278 0 0 0 1.28 1.28h17.28a1.278 1.278 0 0 0 1.28-1.28v-10.72z" transform="translate(-610.313 -5312.19)"/></symbol><symbol viewBox="0 0 30 30" id="picture"><title>picture</title><path id="picture-PICTURE" class="cls-1" d="M1006 3959a1.505 1.505 0 0 1-1 1.41v1.68a1.5 1.5 0 1 1-1.91 1.91h-1.68a1.493 1.493 0 0 1-2.818 0h-1.684a1.491 1.491 0 0 1-2.816 0h-1.684a1.491 1.491 0 0 1-2.816 0h-1.684a1.491 1.491 0 0 1-2.816 0h-1.684a1.491 1.491 0 0 1-2.816 0h-1.684a1.5 1.5 0 1 1-1.908-1.91v-1.68a1.494 1.494 0 0 1 0-2.82v-1.68a1.494 1.494 0 0 1 0-2.82v-1.68a1.494 1.494 0 0 1 0-2.82v-1.68a1.494 1.494 0 0 1 0-2.82v-1.68a1.494 1.494 0 0 1 0-2.82v-1.68a1.5 1.5 0 1 1 1.908-1.91h1.684a1.491 1.491 0 0 1 2.816 0h1.684a1.491 1.491 0 0 1 2.816 0h1.684a1.491 1.491 0 0 1 2.816 0h1.684a1.491 1.491 0 0 1 2.816 0h1.684a1.493 1.493 0 0 1 2.818 0h1.68a1.5 1.5 0 1 1 1.91 1.91v1.68a1.494 1.494 0 0 1 0 2.82v1.68a1.494 1.494 0 0 1 0 2.82v1.68a1.494 1.494 0 0 1 0 2.82v1.68a1.494 1.494 0 0 1 0 2.82v1.68a1.505 1.505 0 0 1 1 1.41zm-4-20h-22v22h22v-22zm-13 16l7-8.5 4.5 7v6h-19l6-6zm-3-7a3 3 0 1 1 3-3 3 3 0 0 1-3 3z" transform="translate(-976 -3935)"/></symbol><symbol viewBox="0 0 19.188 25.62" id="pin"><title>pin</title><path id="pin-PIN_2" data-name="PIN 2" class="cls-1" d="M960 9322.8s-9.6-10.7-9.6-16a9.6 9.6 0 0 1 19.2 0c0 5.3-9.6 16-9.6 16zm0-22.4a6.4 6.4 0 1 0 6.4 6.4 6.4 6.4 0 0 0-6.4-6.4zm0 9.6a3.2 3.2 0 1 1 3.2-3.2 3.2 3.2 0 0 1-3.2 3.2z" transform="translate(-950.406 -9297.19)"/></symbol><symbol viewBox="0 0 19.594 25.62" id="pinterest"><title>pinterest</title><path id="pinterest-pinterest" class="cls-1" d="M566.051 5328.85c-.209.84-.42 1.71-.638 2.56a18.96 18.96 0 0 1-.718 2.47 12.691 12.691 0 0 1-2.043 3.53c-.575.66-.453.4-.626.36-.132-.03-.143-.16-.169-.34a19.314 19.314 0 0 1 .007-3.34 17.909 17.909 0 0 1 .589-3.47c.484-2.07.946-4.09 1.435-6.17a1.422 1.422 0 0 0 .09-.44 6.471 6.471 0 0 1-.429-1.7 5.448 5.448 0 0 1 .139-1.95 3.224 3.224 0 0 1 1.894-2.34 2.206 2.206 0 0 1 1.735.14 1.851 1.851 0 0 1 .867 1.24 4.463 4.463 0 0 1-.08 1.89c-.267 1.22-.618 2.14-.937 3.31a3.648 3.648 0 0 0-.189 1.81 2.119 2.119 0 0 0 .847 1.28 2.493 2.493 0 0 0 1.625.46 3.572 3.572 0 0 0 2.651-1.57 9.309 9.309 0 0 0 1.675-4.69 11.565 11.565 0 0 0 .07-2.01 5.473 5.473 0 0 0-1.127-3.12 5.282 5.282 0 0 0-2.512-1.71 8.285 8.285 0 0 0-3.747-.23 6.613 6.613 0 0 0-4.915 3.53 7.085 7.085 0 0 0-.837 3.41 4.438 4.438 0 0 0 .678 2.5c.133.2.328.37.458.6a1.718 1.718 0 0 1-.119 1.16c-.11.43-.122 1.01-.618 1.02a1.377 1.377 0 0 1-.638-.24 5.108 5.108 0 0 1-2.422-3.74 8.878 8.878 0 0 1 0-3.23 9.244 9.244 0 0 1 4.4-6.15 10.4 10.4 0 0 1 3.907-1.34 13.322 13.322 0 0 1 1.605-.13 9.627 9.627 0 0 1 4.326.8 8.862 8.862 0 0 1 2.98 2.15 8.14 8.14 0 0 1 1.834 3.31 7.922 7.922 0 0 1 .4 2.29 13.861 13.861 0 0 1-.308 2.37 9.315 9.315 0 0 1-3.838 6.45 6.924 6.924 0 0 1-4 1.1 4.642 4.642 0 0 1-1.983-.58 3.306 3.306 0 0 1-1.319-1.25z" transform="translate(-557.906 -5312.22)"/></symbol><symbol viewBox="0 0 17.62 17.625" id="search"><title>search</title><path id="search-MAGNIFYING_GLASS" data-name="MAGNIFYING GLASS" class="cls-1" d="M1561.32 50.983a1.652 1.652 0 0 1-2.34 2.334l-4.83-4.836a6.627 6.627 0 1 1 2.33-2.334l4.84 4.836zM1550.8 37.85a4.95 4.95 0 1 0 4.95 4.95 4.952 4.952 0 0 0-4.95-4.95z" transform="translate(-1544.19 -36.188)"/></symbol><symbol viewBox="0 0 63 61" id="speech"><title>speech</title><path id="speech-SPEECH_4" data-name="SPEECH 4" class="cls-1" d="M574 4571h-2v5a2.979 2.979 0 0 1-.061.6 2.9 2.9 0 0 1-.122.4c-.02.05-.03.11-.053.17a2.746 2.746 0 0 1-.176.32c-.035.06-.061.13-.1.19a3.65 3.65 0 0 1-.334.4c-.012.01-.02.03-.033.04a3 3 0 0 1-2.084.87c-.012 0-.024.01-.037.01a3 3 0 0 1-2.121-.88l-7.122-7.12H532a3 3 0 0 1-3-3v-30a3 3 0 0 1 3-3h42a3 3 0 0 1 3 3v30a3 3 0 0 1-3 3zm-15.485 3l6.326 6.32h.008A6 6 0 0 0 569 4582v2a3 3 0 0 1-3 3h-31.757l-8.122 8.12a3 3 0 0 1-2.121.88c-.013 0-.024-.01-.037-.01a3 3 0 0 1-2.084-.87c-.013-.01-.021-.03-.033-.04a2.99 2.99 0 0 1-.334-.41 1.69 1.69 0 0 1-.1-.18 3.64 3.64 0 0 1-.177-.32c-.023-.06-.033-.12-.053-.17a2.627 2.627 0 0 1-.183-1v-6h-4a3 3 0 0 1-3-3v-34a3 3 0 0 1 3-3h9v21a6 6 0 0 0 6 6h26.515z" transform="translate(-514 -4535)"/></symbol><symbol viewBox="0 0 10 16.03" id="tor"><title>tor</title><path id="tor-tumblr" class="cls-1" d="M666.009 9791.15a9.526 9.526 0 0 1-1.849.67 7.785 7.785 0 0 1-1.789.2 4.728 4.728 0 0 1-1.718-.28 4.1 4.1 0 0 1-1.431-.79 2.892 2.892 0 0 1-.823-1.09 4.784 4.784 0 0 1-.228-1.68v-5.61h-2.164v-2.27a5.566 5.566 0 0 0 1.8-.88 4.389 4.389 0 0 0 1.075-1.37 6.3 6.3 0 0 0 .558-2.04h2.26v3.7h3.682v2.86H661.7v4.1a7.024 7.024 0 0 0 .086 1.73 1.494 1.494 0 0 0 .607.69 2.32 2.32 0 0 0 1.209.32 4.31 4.31 0 0 0 2.406-.79v2.53z" transform="translate(-656 -9776)"/></symbol><symbol viewBox="0 0 25.594 20.79" id="twitter"><title>twitter</title><path id="twitter-twitter" class="cls-1" d="M516.513 5314.6a5.393 5.393 0 0 1 4.151 1.65 8.665 8.665 0 0 0 2.691-.91l.653-.36a5.272 5.272 0 0 1-1.7 2.47 2.512 2.512 0 0 1-.577.41v.01a9.769 9.769 0 0 0 2.973-.8v.01a8.535 8.535 0 0 1-1.781 2.04c-.273.22-.547.44-.82.65a15.155 15.155 0 0 1-.243 3.38c-1.312 5.89-4.788 9.89-10.289 11.61a15.83 15.83 0 0 1-7.432.31 19.915 19.915 0 0 1-3.087-1.01 11.506 11.506 0 0 1-1.487-.77c-.154-.09-.307-.19-.461-.28a9.219 9.219 0 0 0 1.678.06c.517-.08 1.023-.06 1.5-.16a10.77 10.77 0 0 0 3.151-1.14 5.97 5.97 0 0 0 1.423-.93 4.58 4.58 0 0 1-1.563-.28 5.294 5.294 0 0 1-3.332-3.36 5.194 5.194 0 0 0 2.345-.11 3.767 3.767 0 0 1-1.717-.69 5.032 5.032 0 0 1-2.473-4.49c.18.08.359.17.538.25a5.152 5.152 0 0 0 1.1.31 1.444 1.444 0 0 0 .718.06h-.026c-.264-.3-.695-.51-.961-.84a5.365 5.365 0 0 1-1.179-4.76 6 6 0 0 1 .564-1.37c.009 0 .017.01.026.01a3.044 3.044 0 0 0 .474.55 9.443 9.443 0 0 0 1.563 1.5 15.43 15.43 0 0 0 6.419 3.1 10.137 10.137 0 0 0 2.358.31 4.908 4.908 0 0 1 .025-2.47 5.165 5.165 0 0 1 2.973-3.52 5.9 5.9 0 0 1 1.166-.36c.212-.03.426-.05.639-.08z" transform="translate(-499.094 -5314.59)"/></symbol><symbol viewBox="0 0 19.438 11.25" id="view"><title>view</title><path id="view-VIEW" class="cls-1" d="M789.71 9115.78a.117.117 0 0 0 0 .02v.05a.729.729 0 0 1-.2.41c-.2.25-.426.48-.65.71a16.667 16.667 0 0 1-4.123 3.12 11.065 11.065 0 0 1-3.09 1.12 9.027 9.027 0 0 1-3.55-.05 13.554 13.554 0 0 1-5.5-2.86 15.053 15.053 0 0 1-2.108-2.04.778.778 0 0 1 0-1.05c.2-.24.426-.47.651-.7a16.648 16.648 0 0 1 4.123-3.12 11.048 11.048 0 0 1 3.089-1.12 8.843 8.843 0 0 1 3.55.05 13.433 13.433 0 0 1 5.5 2.86 14.981 14.981 0 0 1 2.108 2.03.8.8 0 0 1 .2.41v.01a.059.059 0 0 1 0 .02v.01a.134.134 0 0 0 0 .02v.1zm-9.719-3.84a3.645 3.645 0 1 0 3.644 3.65 3.645 3.645 0 0 0-3.644-3.65zm0 5.47a1.825 1.825 0 1 1 1.822-1.82 1.825 1.825 0 0 1-1.822 1.82z" transform="translate(-770.281 -9110.13)"/></symbol><symbol viewBox="0 0 16 11" id="youtube"><title>youtube</title><path id="youtube-youtube" class="cls-1" d="M606.537 9778.52h-10.654c-1.358 0-2.883.91-2.883 2.24v6.62c0 1.33 1.525 2.14 2.883 2.14h10.654a2.223 2.223 0 0 0 2.459-2.14v-6.62a2.3 2.3 0 0 0-2.459-2.24zm-6.573 8.05l-.032-5.04 3.508 2.54z" transform="translate(-593 -9778.53)"/></symbol></svg>